<?xml version="1.0" standalone="no"?>
<!DOCTYPE svg PUBLIC "-//W3C//DTD SVG 20010904//EN"
 "http://www.w3.org/TR/2001/REC-SVG-20010904/DTD/svg10.dtd">
<svg version="1.0" xmlns="http://www.w3.org/2000/svg"
 width="1024.000000pt" height="1024.000000pt" viewBox="0 0 1024.000000 1024.000000"
 preserveAspectRatio="xMidYMid meet">
<metadata>
Created by potrace 1.11, written by Peter Selinger 2001-2013
</metadata>
<g transform="translate(0.000000,1024.000000) scale(0.100000,-0.100000)"
fill="#000000" stroke="none">
<path d="M8710 9194 c-52 -6 -120 -14 -150 -18 -30 -3 -66 -8 -80 -10 -14 -3
-52 -7 -85 -11 -33 -3 -71 -8 -85 -10 -27 -5 -53 -8 -180 -25 -47 -6 -96 -13
-110 -15 -14 -2 -70 -11 -125 -20 -55 -9 -109 -18 -120 -20 -11 -2 -45 -9 -75
-15 -30 -6 -68 -13 -85 -16 -268 -46 -773 -211 -1073 -350 -29 -13 -55 -24
-58 -24 -7 0 -297 -145 -359 -180 -318 -178 -602 -368 -825 -554 -400 -332
-1015 -1047 -1394 -1618 -72 -108 -80 -118 -105 -113 -47 9 -163 17 -260 19
-257 5 -561 -47 -793 -135 -254 -96 -564 -276 -843 -488 -55 -42 -102 -78
-105 -81 -3 -3 -30 -25 -60 -50 -104 -83 -130 -117 -130 -164 0 -54 28 -92 78
-105 20 -5 101 -15 180 -21 78 -6 150 -13 160 -14 9 -2 44 -7 77 -11 32 -4 68
-9 80 -11 11 -2 46 -9 78 -15 33 -5 89 -20 125 -31 37 -12 73 -23 81 -24 28
-5 183 -84 239 -122 54 -38 157 -133 211 -198 39 -47 130 -190 151 -236 15
-36 17 -52 9 -101 -9 -57 -17 -157 -18 -228 l-1 -36 -242 -149 c-133 -82 -253
-156 -267 -164 -125 -74 -141 -100 -142 -241 l-1 -87 -81 -50 c-93 -56 -270
-187 -367 -271 -99 -85 -270 -259 -321 -326 -216 -282 -392 -691 -473 -1095
-3 -14 -8 -36 -11 -50 -9 -41 -35 -192 -40 -235 -3 -22 -7 -56 -10 -75 -2 -19
-7 -69 -10 -110 -4 -41 -8 -88 -10 -103 l-3 -28 81 6 c85 6 95 7 187 19 78 11
122 17 235 37 176 30 501 123 640 183 17 8 59 26 95 41 154 65 366 193 490
295 176 146 398 402 543 626 l46 71 48 -8 c68 -11 242 -4 281 11 23 8 42 29
65 69 19 31 87 142 152 246 65 105 126 204 137 220 10 17 27 48 38 71 l20 41
107 1 c60 1 119 4 133 6 14 3 50 8 81 11 31 3 65 7 76 9 43 9 239 -112 345
-212 69 -66 148 -172 190 -257 60 -119 113 -306 133 -470 4 -27 8 -61 10 -75
2 -14 6 -59 10 -100 6 -82 13 -153 21 -215 10 -86 37 -116 103 -117 54 -1 58
2 241 151 99 80 269 261 332 351 185 270 303 606 343 985 13 113 7 350 -9 442
-4 19 -16 103 -17 115 -1 4 -9 39 -19 78 l-18 70 121 85 c196 136 499 364 532
399 6 6 30 27 55 46 82 64 320 271 475 414 158 145 463 451 521 521 27 33 52
62 55 65 13 11 189 250 236 320 299 447 489 843 686 1430 87 259 189 661 212
840 3 25 8 52 10 60 3 8 7 35 10 60 3 25 10 74 16 110 15 101 17 110 25 185
11 102 11 103 19 185 4 41 9 89 11 105 5 43 6 235 1 265 -35 213 -167 281
-477 244z"/>
</g>
</svg>
